<svg width="20" height="20" viewBox="0 0 20 20" fill="none" xmlns="http://www.w3.org/2000/svg">
<path d="M10.2752 17.7831C9.36686 17.7831 8.45853 17.4415 7.76686 16.7498C6.38353 15.3665 6.38353 13.1248 7.76686 11.7415L9.83353 9.68314C10.0752 9.44147 10.4752 9.44147 10.7169 9.68314C10.9585 9.9248 10.9585 10.3248 10.7169 10.5665L8.6502 12.6248C7.75853 13.5165 7.75853 14.9748 8.6502 15.8665C9.54186 16.7581 11.0002 16.7581 11.8919 15.8665L15.1335 12.6248C16.1169 11.6415 16.6585 10.3331 16.6585 8.94147C16.6585 7.5498 16.1169 6.24147 15.1335 5.25814C13.1002 3.2248 9.80019 3.2248 7.76686 5.25814L4.23353 8.79147C3.40853 9.61647 2.9502 10.7165 2.9502 11.8831C2.9502 13.0498 3.40853 14.1498 4.23353 14.9748C4.4752 15.2165 4.4752 15.6165 4.23353 15.8581C3.99186 16.0998 3.59186 16.0998 3.3502 15.8581C2.29186 14.7915 1.7002 13.3831 1.7002 11.8831C1.7002 10.3831 2.28353 8.96647 3.3502 7.90814L6.88353 4.3748C9.4002 1.85814 13.5002 1.85814 16.0169 4.3748C17.2335 5.59147 17.9085 7.21647 17.9085 8.94147C17.9085 10.6665 17.2335 12.2915 16.0169 13.5081L12.7752 16.7498C12.0835 17.4415 11.1835 17.7831 10.2752 17.7831Z" fill="#292D32"/>
</svg>
