<svg width="60" height="60" viewBox="0 0 60 60" fill="none" xmlns="http://www.w3.org/2000/svg">
<path d="M38.275 37.55C36.825 37.55 35.25 37.075 33.675 36.1L30.375 34.1C30.225 34 29.775 34 29.625 34.1L26.325 36.1C23.625 37.75 20.975 38 18.85 36.8C16.775 35.625 15.625 33.275 15.625 30.2V12.575C15.625 6.475 18.95 3.125 25 3.125H35C41.05 3.125 44.375 6.475 44.375 12.575V30.2C44.375 33.3 43.225 35.65 41.15 36.8C40.275 37.3 39.3 37.55 38.275 37.55ZM30 30.275C30.825 30.275 31.65 30.475 32.325 30.875L35.625 32.875C37.1 33.775 38.45 34 39.3 33.525C40.125 33.05 40.6 31.825 40.6 30.175V12.575C40.6 8.575 38.925 6.875 34.975 6.875H24.975C21.025 6.875 19.35 8.575 19.35 12.575V30.2C19.35 31.85 19.825 33.075 20.65 33.55C21.5 34.025 22.85 33.8 24.325 32.9L27.625 30.9C28.35 30.475 29.175 30.275 30 30.275Z" fill="#3366FF"/>
<path d="M37.5 56.875H22.5C8.925 56.875 3.125 51.025 3.125 37.325V29.75C3.125 18.1 7.325 12.2 16.725 10.625C17.725 10.45 18.7 11.15 18.875 12.175C19.05 13.2 18.35 14.15 17.325 14.325C9.8 15.575 6.85 19.9 6.85 29.75V37.325C6.85 48.85 11.075 53.125 22.475 53.125H37.475C48.875 53.125 53.1 48.85 53.1 37.325V29.75C53.1 19.75 50.05 15.425 42.2 14.25C41.175 14.1 40.475 13.15 40.625 12.125C40.775 11.1 41.725 10.4 42.75 10.55C52.5 12 56.85 17.9 56.85 29.75V37.325C56.875 51.025 51.075 56.875 37.5 56.875Z" fill="#091A7A"/>
</svg>
