<svg width="267" height="297" viewBox="0 0 267 297" fill="none" xmlns="http://www.w3.org/2000/svg">
<path d="M258.168 277.687H25.7979C20.8795 277.687 16.9648 281.59 16.9648 286.493V288.194C16.9648 293.097 20.8795 297 25.7979 297H258.168C263.086 297 267.001 293.097 267.001 288.194V286.493C267.001 281.59 263.086 277.687 258.168 277.687Z" fill="#E3E3E3"/>
<path d="M11.0413 106.272C17.1393 106.272 22.0827 101.343 22.0827 95.2642C22.0827 89.185 17.1393 84.2568 11.0413 84.2568C4.94338 84.2568 0 89.185 0 95.2642C0 101.343 4.94338 106.272 11.0413 106.272Z" fill="#323844"/>
<path d="M94.9563 289.695C103.66 289.695 110.715 282.661 110.715 273.984C110.715 265.308 103.66 258.274 94.9563 258.274C86.2528 258.274 79.1973 265.308 79.1973 273.984C79.1973 282.661 86.2528 289.695 94.9563 289.695Z" fill="#323844"/>
<path d="M198.542 289.695C207.246 289.695 214.301 282.661 214.301 273.984C214.301 265.308 207.246 258.274 198.542 258.274C189.839 258.274 182.783 265.308 182.783 273.984C182.783 282.661 189.839 289.695 198.542 289.695Z" fill="#323844"/>
<path d="M219.02 244.265H68.0553C64.0402 244.265 60.8282 241.063 60.8282 237.06C60.8282 233.057 64.0402 229.855 68.0553 229.855H74.7804C77.6913 229.855 80 227.554 80 224.652C80 223.851 79.7992 223.151 79.4981 222.45L39.7493 93.6634C39.0467 91.4619 37.0391 89.9609 34.7305 89.9609H11.0418C8.13091 89.9609 5.82227 92.2625 5.82227 95.1644C5.82227 98.0664 8.13091 100.368 11.0418 100.368H30.8158L67.6538 219.248C58.0177 219.448 50.2887 227.353 50.2887 236.96C50.2887 246.767 58.2184 254.672 68.0553 254.672H80.9034L90.8406 277.087C92.7477 281.29 97.1642 281.29 98.971 277.087L108.908 254.672H184.491L194.428 277.087C196.336 281.29 200.752 281.29 202.559 277.087L212.496 254.672H219.02C221.931 254.672 224.24 252.37 224.24 249.468C224.24 246.666 221.931 244.265 219.02 244.265Z" fill="#8A8A8A"/>
<path d="M255.959 119.581C254.955 118.28 253.45 117.479 251.743 117.479H53.8021C52.0957 117.479 50.5901 118.28 49.5863 119.581C48.5826 120.882 48.2815 122.683 48.7833 124.184L59.0217 157.206C59.122 157.707 59.2224 158.207 59.5235 158.707L70.4645 194.131C70.5649 194.631 70.6653 195.132 70.866 195.532L80.3013 226.153C80.3013 226.253 80.4017 226.253 80.4017 226.353C80.5021 226.553 80.5021 226.653 80.6025 226.853C80.6025 226.953 80.7028 227.053 80.8032 227.153C81.2047 227.854 81.6062 228.354 82.2085 228.854C82.4092 228.955 82.61 229.155 82.8107 229.255C82.8107 229.255 82.9111 229.255 82.9111 229.355C83.1119 229.455 83.3126 229.555 83.6137 229.655H83.7141C84.216 229.855 84.7179 229.955 85.3201 229.955H220.426C223.236 229.955 225.545 227.754 225.645 224.952L256.762 124.484C257.264 122.683 256.963 120.982 255.959 119.581ZM89.2348 219.348L82.8107 198.634H122.76L126.374 219.348H89.2348ZM216.311 219.348H179.171L182.785 198.634H222.735L216.311 219.348ZM169.034 219.348H136.512L132.898 198.634H172.647L169.034 219.348ZM131.192 188.127L126.575 161.809H178.971L174.353 188.127H131.192ZM124.768 151.302L120.753 127.887H184.893L180.878 151.302H124.768ZM68.1559 151.302L60.9288 127.887H110.514L114.529 151.302H68.1559ZM71.4683 161.809H116.437L121.054 188.127H79.5987L71.4683 161.809ZM226.047 188.127H184.692L189.309 161.809H234.278L226.047 188.127ZM237.389 151.302H191.016L195.031 127.887H244.617L237.389 151.302Z" fill="#0057FF"/>
<path d="M218.115 45.8309C218.115 45.8309 207.877 36.5246 218.015 23.3157C228.153 10.1068 240.901 16.6112 249.533 0C249.533 0 258.567 20.0135 246.522 37.6253C234.477 55.3373 218.115 45.8309 218.115 45.8309Z" fill="#0057FF"/>
<path d="M208.58 49.7332L210.186 56.1375C210.186 56.1375 225.343 47.2315 240.801 18.4121C240.7 18.4121 229.358 36.2241 208.58 49.7332Z" fill="#323844"/>
<path d="M72.1704 46.1314C72.1704 46.1314 72.1704 46.2314 72.1704 46.1314C71.4677 46.3315 70.7651 46.0313 70.5644 45.3308C70.0625 43.7298 69.661 42.1287 69.1591 40.4275C68.9583 39.7271 69.3599 39.0266 70.0625 38.9265C70.7651 38.7264 71.4677 39.1267 71.5681 39.8271C71.9696 41.4282 72.4715 43.0293 72.873 44.6304C73.1741 45.2308 72.7726 45.9312 72.1704 46.1314Z" fill="#0057FF"/>
<path d="M178.87 79.0536C178.268 79.2538 177.565 79.0536 177.264 78.4532C176.963 77.8528 177.264 77.0523 177.867 76.7521C180.878 75.2511 183.789 73.5499 186.398 71.5486C187.001 71.1483 187.703 71.2484 188.205 71.7487C188.607 72.249 188.506 73.0496 188.004 73.5499C185.094 75.6513 182.082 77.5526 178.87 79.0536ZM169.234 82.556H169.134C165.721 83.4566 162.208 83.9569 158.695 84.057C157.992 84.057 157.39 83.5567 157.39 82.8562C157.39 82.1557 157.892 81.5553 158.594 81.5553C161.907 81.4552 165.219 80.9549 168.431 80.0543C169.134 79.8542 169.736 80.2544 169.937 80.9549C170.138 81.6554 169.736 82.3559 169.234 82.556ZM130.991 91.1618H130.891C127.478 92.0624 123.864 92.5627 120.351 92.4627C119.649 92.4627 119.147 91.8623 119.147 91.1618C119.147 90.4613 119.749 89.961 120.452 89.961C123.764 90.061 127.076 89.6608 130.288 88.7602C130.991 88.56 131.694 88.9603 131.794 89.6608C131.894 90.2612 131.593 90.9617 130.991 91.1618ZM140.426 87.059C139.924 87.2592 139.222 87.059 138.921 86.5587C138.519 85.9583 138.72 85.1577 139.322 84.8575C140.627 84.057 141.832 83.1564 142.936 82.2558C141.229 81.7555 139.623 81.155 138.118 80.4546C137.515 80.1544 137.214 79.4539 137.515 78.8535C137.817 78.2531 138.519 77.9529 139.121 78.2531C140.627 78.8535 142.133 79.4539 143.739 79.9542C144.14 80.0543 144.542 80.1544 145.044 80.3545C145.646 79.7541 146.148 79.1537 146.65 78.5533C147.051 78.053 147.854 77.9529 148.456 78.3532C148.958 78.7534 149.059 79.554 148.657 80.1544C148.456 80.4546 148.155 80.7548 147.854 81.055C148.155 81.055 148.356 81.155 148.657 81.155C149.36 81.2551 149.761 81.9556 149.661 82.556C149.561 83.2565 148.858 83.6567 148.256 83.5567C147.453 83.4566 146.65 83.2565 145.847 83.0563C144.241 84.5573 142.534 85.8582 140.627 87.059C140.527 87.059 140.426 87.059 140.426 87.059ZM110.715 90.7615C110.514 90.8616 110.213 90.8616 109.912 90.7615C106.6 89.7608 103.388 88.3599 100.276 86.6588C99.6738 86.3586 99.4731 85.558 99.7742 84.9576C100.075 84.3572 100.878 84.1571 101.481 84.4573C104.492 86.1584 107.503 87.4593 110.615 88.3599C111.317 88.56 111.619 89.2605 111.418 89.961C111.418 90.3612 111.117 90.6614 110.715 90.7615ZM152.773 71.3484C152.572 71.4485 152.271 71.4485 151.97 71.3484C151.267 71.1483 150.966 70.4478 151.167 69.7474C152.07 66.5452 152.371 63.243 151.869 60.1409C151.769 59.4404 152.271 58.84 152.873 58.74C153.576 58.6399 154.178 59.1402 154.278 59.7406C154.78 63.1429 154.579 66.8454 153.475 70.4478C153.475 70.9482 153.174 71.2484 152.773 71.3484ZM130.389 74.9509C129.987 75.151 129.485 75.0509 129.084 74.6507C127.277 72.9495 125.772 71.0482 124.667 69.0469C124.266 68.2464 123.864 67.4458 123.563 66.6453C123.463 66.3451 123.362 66.0449 123.262 65.6446C123.061 64.9441 123.463 64.2437 124.065 64.0435C124.768 63.8434 125.47 64.2437 125.671 64.8441C125.772 65.1443 125.872 65.4445 125.972 65.6446C126.273 66.3451 126.575 67.0455 126.976 67.746C127.98 69.5472 129.285 71.2484 130.991 72.7494C131.493 73.2497 131.493 74.0503 131.091 74.5506C130.79 74.8508 130.59 74.9509 130.389 74.9509ZM92.9486 80.8549C92.5471 81.055 92.0452 80.9549 91.6437 80.6547C89.3351 78.6534 87.1268 76.4519 85.2197 74.0503C84.9186 73.7501 84.7178 73.3498 84.4167 73.0496C84.0152 72.5493 84.1156 71.7487 84.6174 71.2484C85.1193 70.8481 85.9223 70.9482 86.4242 71.4485C86.7253 71.7487 86.9261 72.0489 87.2272 72.4492C89.1343 74.7507 91.1419 76.8521 93.3501 78.7534C93.852 79.2538 93.9524 79.9542 93.4505 80.5546C93.3501 80.6547 93.1494 80.7548 92.9486 80.8549ZM149.36 52.0354C148.858 52.2356 148.356 52.1355 147.955 51.7352C145.847 49.4337 142.936 47.8326 139.824 47.1321C139.121 47.0321 138.72 46.3316 138.82 45.6311C138.921 44.9307 139.623 44.5304 140.326 44.6305C143.94 45.431 147.352 47.3323 149.761 49.934C150.263 50.4344 150.163 51.2349 149.661 51.7352C149.561 51.9354 149.46 52.0354 149.36 52.0354ZM124.567 56.4384C124.366 56.5385 124.065 56.5385 123.764 56.4384C123.061 56.2383 122.66 55.5378 122.861 54.9374C123.764 51.8353 125.37 49.2336 127.779 47.3323C128.281 46.932 128.883 46.5317 129.485 46.1315C130.088 45.8313 130.891 46.0314 131.192 46.6318C131.493 47.2322 131.292 48.0327 130.69 48.3329C130.188 48.6331 129.787 48.9334 129.285 49.2336C127.378 50.7346 125.972 52.936 125.27 55.5378C125.27 56.0381 124.968 56.3383 124.567 56.4384ZM80.1005 65.0442C79.4983 65.2443 78.896 65.0442 78.5949 64.5439C76.8885 61.6419 75.3829 58.5398 73.9776 55.2376C73.6765 54.6372 73.9776 53.8367 74.6802 53.6365C75.3829 53.3363 76.0855 53.6365 76.2862 54.337C77.5911 57.5391 79.0968 60.5412 80.7028 63.3431C81.0039 63.9435 80.8032 64.744 80.2009 65.0442C80.2009 64.9441 80.2009 64.9441 80.1005 65.0442Z" fill="#0057FF"/>
<path d="M195.03 66.645C194.628 66.8452 194.127 66.7451 193.825 66.4449C193.324 66.0446 193.223 65.2441 193.625 64.6437C194.628 63.4429 195.632 62.0419 196.536 60.741C196.937 60.1406 197.74 60.0406 198.242 60.4408C198.844 60.8411 198.945 61.6417 198.543 62.142C197.64 63.5429 196.536 64.9439 195.431 66.2447C195.431 66.4449 195.231 66.545 195.03 66.645Z" fill="#0057FF"/>
</svg>
