<svg width="60" height="60" viewBox="0 0 60 60" fill="none" xmlns="http://www.w3.org/2000/svg">
<g id="vuesax/outline/user-octagon">
<g id="user-octagon">
<path id="Vector" d="M30.0004 56.8749C28.3254 56.8749 26.6254 56.4499 25.1254 55.5749L10.2754 46.9999C7.27539 45.2499 5.40039 42.0249 5.40039 38.5499V21.45C5.40039 17.975 7.27539 14.75 10.2754 13L25.1254 4.42499C28.1254 2.67499 31.8504 2.67499 34.8754 4.42499L49.7254 13C52.7254 14.75 54.6004 17.975 54.6004 21.45V38.5499C54.6004 42.0249 52.7254 45.2499 49.7254 46.9999L34.8754 55.5749C33.3754 56.4499 31.6754 56.8749 30.0004 56.8749ZM30.0004 6.87494C28.9754 6.87494 27.9254 7.14996 27.0004 7.67496L12.1504 16.2499C10.3004 17.3249 9.15039 19.3 9.15039 21.45V38.5499C9.15039 40.6749 10.3004 42.6749 12.1504 43.7499L27.0004 52.3249C28.8504 53.3999 31.1504 53.3999 33.0004 52.3249L47.8504 43.7499C49.7004 42.6749 50.8504 40.6999 50.8504 38.5499V21.45C50.8504 19.325 49.7004 17.3249 47.8504 16.2499L33.0004 7.67496C32.0754 7.14996 31.0254 6.87494 30.0004 6.87494Z" fill="#3366FF"/>
<path id="Vector_2" d="M29.9998 29.3752C25.7498 29.3752 22.2998 25.9251 22.2998 21.6751C22.2998 17.4251 25.7498 13.9752 29.9998 13.9752C34.2498 13.9752 37.6998 17.4251 37.6998 21.6751C37.6998 25.9251 34.2498 29.3752 29.9998 29.3752ZM29.9998 17.7252C27.8248 17.7252 26.0498 19.5001 26.0498 21.6751C26.0498 23.8501 27.8248 25.6252 29.9998 25.6252C32.1748 25.6252 33.9498 23.8501 33.9498 21.6751C33.9498 19.5001 32.1748 17.7252 29.9998 17.7252Z" fill="#091A7A"/>
<path id="Vector_3" d="M40 43.5252C38.975 43.5252 38.125 42.6752 38.125 41.6502C38.125 38.2002 34.475 35.3754 30 35.3754C25.525 35.3754 21.875 38.2002 21.875 41.6502C21.875 42.6752 21.025 43.5252 20 43.5252C18.975 43.5252 18.125 42.6752 18.125 41.6502C18.125 36.1252 23.45 31.6254 30 31.6254C36.55 31.6254 41.875 36.1252 41.875 41.6502C41.875 42.6752 41.025 43.5252 40 43.5252Z" fill="#091A7A"/>
</g>
</g>
</svg>
